<mxfile host="65bd71144e">
    <diagram name="Page-1" id="Af2CoAbSZcckCuTcOnmQ">
        <mxGraphModel dx="976" dy="1055" grid="1" gridSize="10" guides="1" tooltips="1" connect="1" arrows="1" fold="1" page="1" pageScale="1" pageWidth="827" pageHeight="1169" math="0" shadow="0">
            <root>
                <mxCell id="0"/>
                <mxCell id="1" parent="0"/>
                <mxCell id="374" style="edgeStyle=none;html=1;entryX=0.75;entryY=0;entryDx=0;entryDy=0;" edge="1" parent="1" source="349" target="359">
                    <mxGeometry relative="1" as="geometry"/>
                </mxCell>
                <mxCell id="349" value="dataname" style="rounded=0;whiteSpace=wrap;html=1;fillColor=#e1d5e7;strokeColor=#9673a6;" vertex="1" parent="1">
                    <mxGeometry x="270" y="660" width="73" height="20" as="geometry"/>
                </mxCell>
                <mxCell id="376" style="edgeStyle=none;html=1;entryX=1;entryY=0.75;entryDx=0;entryDy=0;" edge="1" parent="1" source="350" target="359">
                    <mxGeometry relative="1" as="geometry"/>
                </mxCell>
                <mxCell id="382" style="edgeStyle=none;html=1;entryX=0;entryY=0.5;entryDx=0;entryDy=0;" edge="1" parent="1" source="350" target="378">
                    <mxGeometry relative="1" as="geometry"/>
                </mxCell>
                <mxCell id="350" value="filter" style="rounded=0;whiteSpace=wrap;html=1;fillColor=#e1d5e7;strokeColor=#9673a6;" vertex="1" parent="1">
                    <mxGeometry x="271" y="750" width="47" height="20" as="geometry"/>
                </mxCell>
                <mxCell id="375" style="edgeStyle=none;html=1;entryX=1;entryY=0.25;entryDx=0;entryDy=0;" edge="1" parent="1" source="351" target="359">
                    <mxGeometry relative="1" as="geometry"/>
                </mxCell>
                <mxCell id="381" style="edgeStyle=none;html=1;entryX=0;entryY=0.5;entryDx=0;entryDy=0;" edge="1" parent="1" source="351" target="363">
                    <mxGeometry relative="1" as="geometry"/>
                </mxCell>
                <mxCell id="351" value="select" style="rounded=0;whiteSpace=wrap;html=1;fillColor=#e1d5e7;strokeColor=#9673a6;" vertex="1" parent="1">
                    <mxGeometry x="272" y="705" width="47" height="20" as="geometry"/>
                </mxCell>
                <mxCell id="377" style="edgeStyle=none;html=1;entryX=0.791;entryY=1.065;entryDx=0;entryDy=0;entryPerimeter=0;" edge="1" parent="1" source="352" target="359">
                    <mxGeometry relative="1" as="geometry"/>
                </mxCell>
                <mxCell id="352" value="reshape" style="rounded=0;whiteSpace=wrap;html=1;fillColor=#e1d5e7;strokeColor=#9673a6;" vertex="1" parent="1">
                    <mxGeometry x="270" y="790" width="49" height="20" as="geometry"/>
                </mxCell>
                <mxCell id="354" value="select_spec" style="rounded=1;whiteSpace=wrap;html=1;fillColor=#dae8fc;strokeColor=#6c8ebf;arcSize=50;" vertex="1" parent="1">
                    <mxGeometry x="457" y="634" width="81" height="20" as="geometry"/>
                </mxCell>
                <mxCell id="355" value="filter_spec" style="rounded=1;whiteSpace=wrap;html=1;fillColor=#dae8fc;strokeColor=#6c8ebf;arcSize=50;" vertex="1" parent="1">
                    <mxGeometry x="427" y="845" width="81" height="20" as="geometry"/>
                </mxCell>
                <mxCell id="357" value="value_choices" style="rounded=1;whiteSpace=wrap;html=1;fillColor=#dae8fc;strokeColor=#6c8ebf;arcSize=50;" vertex="1" parent="1">
                    <mxGeometry x="740" y="575" width="91" height="20" as="geometry"/>
                </mxCell>
                <mxCell id="358" value="variable_choices" style="rounded=1;whiteSpace=wrap;html=1;fillColor=#dae8fc;strokeColor=#6c8ebf;arcSize=50;" vertex="1" parent="1">
                    <mxGeometry x="699.5" y="430" width="95" height="20" as="geometry"/>
                </mxCell>
                <mxCell id="359" value="data_extract_spec" style="rounded=1;whiteSpace=wrap;html=1;fillColor=#dae8fc;strokeColor=#6c8ebf;arcSize=43;" vertex="1" parent="1">
                    <mxGeometry x="110" y="720" width="110" height="30" as="geometry"/>
                </mxCell>
                <mxCell id="360" value="function" style="rounded=1;whiteSpace=wrap;html=1;fillColor=#dae8fc;strokeColor=#6c8ebf;arcSize=43;" vertex="1" parent="1">
                    <mxGeometry x="230" y="460" width="70" height="20" as="geometry"/>
                </mxCell>
                <mxCell id="372" style="edgeStyle=none;html=1;entryX=1;entryY=0.25;entryDx=0;entryDy=0;" edge="1" parent="1" source="362" target="360">
                    <mxGeometry relative="1" as="geometry"/>
                </mxCell>
                <mxCell id="362" value="argument 1" style="rounded=0;whiteSpace=wrap;html=1;fillColor=#e1d5e7;strokeColor=#9673a6;" vertex="1" parent="1">
                    <mxGeometry x="330" y="445" width="73" height="20" as="geometry"/>
                </mxCell>
                <mxCell id="363" value="Created by" style="text;html=1;strokeColor=none;fillColor=none;align=center;verticalAlign=middle;whiteSpace=wrap;rounded=0;rotation=-20;" vertex="1" parent="1">
                    <mxGeometry x="390" y="650" width="70" height="20" as="geometry"/>
                </mxCell>
                <mxCell id="373" style="edgeStyle=none;html=1;" edge="1" parent="1" source="365" target="360">
                    <mxGeometry relative="1" as="geometry"/>
                </mxCell>
                <mxCell id="365" value="argument 2" style="rounded=0;whiteSpace=wrap;html=1;fillColor=#e1d5e7;strokeColor=#9673a6;" vertex="1" parent="1">
                    <mxGeometry x="330" y="475" width="73" height="20" as="geometry"/>
                </mxCell>
                <mxCell id="378" value="Created by" style="text;html=1;strokeColor=none;fillColor=none;align=center;verticalAlign=middle;whiteSpace=wrap;rounded=0;rotation=25;" vertex="1" parent="1">
                    <mxGeometry x="379" y="811" width="70" height="20" as="geometry"/>
                </mxCell>
                <mxCell id="394" style="edgeStyle=none;html=1;entryX=0.25;entryY=0;entryDx=0;entryDy=0;" edge="1" parent="1" source="380" target="354">
                    <mxGeometry relative="1" as="geometry"/>
                </mxCell>
                <mxCell id="380" value="dataname" style="rounded=0;whiteSpace=wrap;html=1;fillColor=#e1d5e7;strokeColor=#9673a6;" vertex="1" parent="1">
                    <mxGeometry x="427" y="565" width="73" height="20" as="geometry"/>
                </mxCell>
                <mxCell id="395" style="edgeStyle=none;html=1;entryX=0.5;entryY=0;entryDx=0;entryDy=0;" edge="1" parent="1" source="384" target="354">
                    <mxGeometry relative="1" as="geometry"/>
                </mxCell>
                <mxCell id="384" value="choices" style="rounded=0;whiteSpace=wrap;html=1;fillColor=#e1d5e7;strokeColor=#9673a6;" vertex="1" parent="1">
                    <mxGeometry x="508" y="564.5" width="73" height="20" as="geometry"/>
                </mxCell>
                <mxCell id="396" style="edgeStyle=none;html=1;" edge="1" parent="1" source="385" target="354">
                    <mxGeometry relative="1" as="geometry"/>
                </mxCell>
                <mxCell id="385" value="selected" style="rounded=0;whiteSpace=wrap;html=1;fillColor=#e1d5e7;strokeColor=#9673a6;" vertex="1" parent="1">
                    <mxGeometry x="550" y="590" width="73" height="20" as="geometry"/>
                </mxCell>
                <mxCell id="397" style="edgeStyle=none;html=1;" edge="1" parent="1" source="386" target="354">
                    <mxGeometry relative="1" as="geometry"/>
                </mxCell>
                <mxCell id="386" value="multiple" style="rounded=0;whiteSpace=wrap;html=1;fillColor=#e1d5e7;strokeColor=#9673a6;" vertex="1" parent="1">
                    <mxGeometry x="566" y="620" width="73" height="20" as="geometry"/>
                </mxCell>
                <mxCell id="398" style="edgeStyle=none;html=1;entryX=1;entryY=0.5;entryDx=0;entryDy=0;" edge="1" parent="1" source="387" target="354">
                    <mxGeometry relative="1" as="geometry"/>
                </mxCell>
                <mxCell id="387" value="fixed" style="rounded=0;whiteSpace=wrap;html=1;fillColor=#e1d5e7;strokeColor=#9673a6;" vertex="1" parent="1">
                    <mxGeometry x="566" y="650" width="73" height="20" as="geometry"/>
                </mxCell>
                <mxCell id="399" style="edgeStyle=none;html=1;" edge="1" parent="1" source="388" target="354">
                    <mxGeometry relative="1" as="geometry"/>
                </mxCell>
                <mxCell id="388" value="always_selected" style="rounded=0;whiteSpace=wrap;html=1;fillColor=#e1d5e7;strokeColor=#9673a6;" vertex="1" parent="1">
                    <mxGeometry x="538" y="680" width="93" height="20" as="geometry"/>
                </mxCell>
                <mxCell id="400" style="edgeStyle=none;html=1;entryX=0.5;entryY=1;entryDx=0;entryDy=0;" edge="1" parent="1" source="390" target="354">
                    <mxGeometry relative="1" as="geometry"/>
                </mxCell>
                <mxCell id="390" value="ordered" style="rounded=0;whiteSpace=wrap;html=1;fillColor=#e1d5e7;strokeColor=#9673a6;" vertex="1" parent="1">
                    <mxGeometry x="508" y="710" width="73" height="20" as="geometry"/>
                </mxCell>
                <mxCell id="401" style="edgeStyle=none;html=1;entryX=0.25;entryY=1;entryDx=0;entryDy=0;" edge="1" parent="1" source="391" target="354">
                    <mxGeometry relative="1" as="geometry"/>
                </mxCell>
                <mxCell id="391" value="label" style="rounded=0;whiteSpace=wrap;html=1;fillColor=#e1d5e7;strokeColor=#9673a6;" vertex="1" parent="1">
                    <mxGeometry x="427" y="690" width="73" height="20" as="geometry"/>
                </mxCell>
                <mxCell id="404" style="edgeStyle=none;html=1;" edge="1" parent="1" source="405" target="355">
                    <mxGeometry relative="1" as="geometry">
                        <mxPoint x="504.25" y="874" as="targetPoint"/>
                    </mxGeometry>
                </mxCell>
                <mxCell id="405" value="vars" style="rounded=0;whiteSpace=wrap;html=1;fillColor=#e1d5e7;strokeColor=#9673a6;" vertex="1" parent="1">
                    <mxGeometry x="431" y="780" width="73" height="20" as="geometry"/>
                </mxCell>
                <mxCell id="406" style="edgeStyle=none;html=1;entryX=0.808;entryY=-0.029;entryDx=0;entryDy=0;entryPerimeter=0;" edge="1" parent="1" source="407" target="355">
                    <mxGeometry relative="1" as="geometry">
                        <mxPoint x="524.4999999999998" y="874" as="targetPoint"/>
                    </mxGeometry>
                </mxCell>
                <mxCell id="407" value="choices" style="rounded=0;whiteSpace=wrap;html=1;fillColor=#e1d5e7;strokeColor=#9673a6;" vertex="1" parent="1">
                    <mxGeometry x="510" y="791" width="73" height="20" as="geometry"/>
                </mxCell>
                <mxCell id="408" style="edgeStyle=none;html=1;entryX=0.932;entryY=0.081;entryDx=0;entryDy=0;entryPerimeter=0;" edge="1" parent="1" source="409" target="355">
                    <mxGeometry relative="1" as="geometry">
                        <mxPoint x="545" y="874" as="targetPoint"/>
                    </mxGeometry>
                </mxCell>
                <mxCell id="409" value="selected" style="rounded=0;whiteSpace=wrap;html=1;fillColor=#e1d5e7;strokeColor=#9673a6;" vertex="1" parent="1">
                    <mxGeometry x="538" y="820" width="73" height="20" as="geometry"/>
                </mxCell>
                <mxCell id="410" style="edgeStyle=none;html=1;entryX=1;entryY=0.5;entryDx=0;entryDy=0;" edge="1" parent="1" source="411" target="355">
                    <mxGeometry relative="1" as="geometry">
                        <mxPoint x="564.9999999999998" y="876.2857142857142" as="targetPoint"/>
                    </mxGeometry>
                </mxCell>
                <mxCell id="411" value="multiple" style="rounded=0;whiteSpace=wrap;html=1;fillColor=#e1d5e7;strokeColor=#9673a6;" vertex="1" parent="1">
                    <mxGeometry x="548" y="850" width="73" height="20" as="geometry"/>
                </mxCell>
                <mxCell id="412" style="edgeStyle=none;html=1;exitX=0;exitY=0.25;exitDx=0;exitDy=0;entryX=0.961;entryY=0.852;entryDx=0;entryDy=0;entryPerimeter=0;" edge="1" parent="1" source="413" target="355">
                    <mxGeometry relative="1" as="geometry">
                        <mxPoint x="564.9999999999998" y="884" as="targetPoint"/>
                    </mxGeometry>
                </mxCell>
                <mxCell id="413" value="label" style="rounded=0;whiteSpace=wrap;html=1;fillColor=#e1d5e7;strokeColor=#9673a6;" vertex="1" parent="1">
                    <mxGeometry x="530" y="880" width="73" height="20" as="geometry"/>
                </mxCell>
                <mxCell id="414" style="edgeStyle=none;html=1;entryX=0.75;entryY=1;entryDx=0;entryDy=0;" edge="1" parent="1" source="415" target="355">
                    <mxGeometry relative="1" as="geometry">
                        <mxPoint x="556.4444444444443" y="894" as="targetPoint"/>
                    </mxGeometry>
                </mxCell>
                <mxCell id="415" value="sep" style="rounded=0;whiteSpace=wrap;html=1;fillColor=#e1d5e7;strokeColor=#9673a6;" vertex="1" parent="1">
                    <mxGeometry x="473" y="910" width="93" height="20" as="geometry"/>
                </mxCell>
                <mxCell id="416" style="edgeStyle=none;html=1;entryX=0.25;entryY=1;entryDx=0;entryDy=0;" edge="1" parent="1" source="417" target="355">
                    <mxGeometry relative="1" as="geometry">
                        <mxPoint x="524.4999999999998" y="894" as="targetPoint"/>
                    </mxGeometry>
                </mxCell>
                <mxCell id="417" value="drop_keys" style="rounded=0;whiteSpace=wrap;html=1;fillColor=#e1d5e7;strokeColor=#9673a6;" vertex="1" parent="1">
                    <mxGeometry x="384" y="910" width="73" height="20" as="geometry"/>
                </mxCell>
                <mxCell id="422" style="edgeStyle=none;html=1;entryX=0;entryY=0.5;entryDx=0;entryDy=0;exitX=1;exitY=0.5;exitDx=0;exitDy=0;" edge="1" parent="1" target="423" source="384">
                    <mxGeometry relative="1" as="geometry">
                        <mxPoint x="449.00232191447975" y="495" as="sourcePoint"/>
                    </mxGeometry>
                </mxCell>
                <mxCell id="423" value="Created by" style="text;html=1;strokeColor=none;fillColor=none;align=center;verticalAlign=middle;whiteSpace=wrap;rounded=0;rotation=-45;" vertex="1" parent="1">
                    <mxGeometry x="642.5" y="460" width="70" height="20" as="geometry"/>
                </mxCell>
                <mxCell id="425" style="edgeStyle=none;html=1;entryX=0;entryY=0.5;entryDx=0;entryDy=0;exitX=1;exitY=0.5;exitDx=0;exitDy=0;" edge="1" parent="1" target="426" source="384">
                    <mxGeometry relative="1" as="geometry">
                        <mxPoint x="623.0000000000001" y="585" as="sourcePoint"/>
                    </mxGeometry>
                </mxCell>
                <mxCell id="426" value="Created by" style="text;html=1;strokeColor=none;fillColor=none;align=center;verticalAlign=middle;whiteSpace=wrap;rounded=0;rotation=5;" vertex="1" parent="1">
                    <mxGeometry x="670" y="575" width="70" height="20" as="geometry"/>
                </mxCell>
                <mxCell id="429" style="edgeStyle=none;html=1;entryX=0;entryY=0.25;entryDx=0;entryDy=0;" edge="1" parent="1" source="430" target="358">
                    <mxGeometry relative="1" as="geometry">
                        <mxPoint x="729.25" y="429" as="targetPoint"/>
                    </mxGeometry>
                </mxCell>
                <mxCell id="430" value="data" style="rounded=0;whiteSpace=wrap;html=1;fillColor=#e1d5e7;strokeColor=#9673a6;" vertex="1" parent="1">
                    <mxGeometry x="623" y="390" width="73" height="20" as="geometry"/>
                </mxCell>
                <mxCell id="431" style="edgeStyle=none;html=1;entryX=0.5;entryY=0;entryDx=0;entryDy=0;" edge="1" parent="1" source="432">
                    <mxGeometry relative="1" as="geometry">
                        <mxPoint x="749.5" y="429" as="targetPoint"/>
                    </mxGeometry>
                </mxCell>
                <mxCell id="432" value="subset" style="rounded=0;whiteSpace=wrap;html=1;fillColor=#e1d5e7;strokeColor=#9673a6;" vertex="1" parent="1">
                    <mxGeometry x="709" y="370" width="73" height="20" as="geometry"/>
                </mxCell>
                <mxCell id="433" style="edgeStyle=none;html=1;" edge="1" parent="1" source="434">
                    <mxGeometry relative="1" as="geometry">
                        <mxPoint x="769.9166666666665" y="429" as="targetPoint"/>
                    </mxGeometry>
                </mxCell>
                <mxCell id="434" value="fill" style="rounded=0;whiteSpace=wrap;html=1;fillColor=#e1d5e7;strokeColor=#9673a6;" vertex="1" parent="1">
                    <mxGeometry x="792" y="381" width="73" height="20" as="geometry"/>
                </mxCell>
                <mxCell id="435" style="edgeStyle=none;html=1;" edge="1" parent="1" source="436">
                    <mxGeometry relative="1" as="geometry">
                        <mxPoint x="790" y="431.28571428571433" as="targetPoint"/>
                    </mxGeometry>
                </mxCell>
                <mxCell id="436" value="key" style="rounded=0;whiteSpace=wrap;html=1;fillColor=#e1d5e7;strokeColor=#9673a6;" vertex="1" parent="1">
                    <mxGeometry x="818" y="409" width="73" height="20" as="geometry"/>
                </mxCell>
                <mxCell id="440" style="edgeStyle=none;html=1;entryX=0.189;entryY=0.067;entryDx=0;entryDy=0;entryPerimeter=0;exitX=0.5;exitY=1;exitDx=0;exitDy=0;" edge="1" parent="1" source="441" target="357">
                    <mxGeometry relative="1" as="geometry">
                        <mxPoint x="767.75" y="569" as="targetPoint"/>
                    </mxGeometry>
                </mxCell>
                <mxCell id="441" value="data" style="rounded=0;whiteSpace=wrap;html=1;fillColor=#e1d5e7;strokeColor=#9673a6;" vertex="1" parent="1">
                    <mxGeometry x="690" y="515" width="73" height="20" as="geometry"/>
                </mxCell>
                <mxCell id="442" style="edgeStyle=none;html=1;entryX=0.347;entryY=0.048;entryDx=0;entryDy=0;entryPerimeter=0;exitX=0.527;exitY=1.022;exitDx=0;exitDy=0;exitPerimeter=0;" edge="1" parent="1" source="443" target="357">
                    <mxGeometry relative="1" as="geometry">
                        <mxPoint x="788" y="569" as="targetPoint"/>
                    </mxGeometry>
                </mxCell>
                <mxCell id="443" value="var_choices" style="rounded=0;whiteSpace=wrap;html=1;fillColor=#e1d5e7;strokeColor=#9673a6;" vertex="1" parent="1">
                    <mxGeometry x="770" y="515" width="73" height="20" as="geometry"/>
                </mxCell>
                <mxCell id="444" style="edgeStyle=none;html=1;exitX=0;exitY=0.5;exitDx=0;exitDy=0;entryX=0.75;entryY=0;entryDx=0;entryDy=0;" edge="1" parent="1" source="445" target="357">
                    <mxGeometry relative="1" as="geometry">
                        <mxPoint x="808.4166666666667" y="569" as="targetPoint"/>
                    </mxGeometry>
                </mxCell>
                <mxCell id="445" value="var_label" style="rounded=0;whiteSpace=wrap;html=1;fillColor=#e1d5e7;strokeColor=#9673a6;" vertex="1" parent="1">
                    <mxGeometry x="843" y="540" width="73" height="20" as="geometry"/>
                </mxCell>
                <mxCell id="446" style="edgeStyle=none;html=1;entryX=1;entryY=0.5;entryDx=0;entryDy=0;exitX=0;exitY=0.5;exitDx=0;exitDy=0;" edge="1" parent="1" source="447" target="357">
                    <mxGeometry relative="1" as="geometry">
                        <mxPoint x="828.5" y="571.2857142857143" as="targetPoint"/>
                    </mxGeometry>
                </mxCell>
                <mxCell id="447" value="subset" style="rounded=0;whiteSpace=wrap;html=1;fillColor=#e1d5e7;strokeColor=#9673a6;" vertex="1" parent="1">
                    <mxGeometry x="856.5" y="580" width="73" height="20" as="geometry"/>
                </mxCell>
                <mxCell id="448" style="edgeStyle=none;html=1;entryX=0.882;entryY=1.067;entryDx=0;entryDy=0;entryPerimeter=0;" edge="1" parent="1" source="449" target="357">
                    <mxGeometry relative="1" as="geometry">
                        <mxPoint x="828.5" y="579" as="targetPoint"/>
                    </mxGeometry>
                </mxCell>
                <mxCell id="449" value="sep" style="rounded=0;whiteSpace=wrap;html=1;fillColor=#e1d5e7;strokeColor=#9673a6;" vertex="1" parent="1">
                    <mxGeometry x="831" y="620" width="73" height="20" as="geometry"/>
                </mxCell>
                <mxCell id="450" value="value_choices" style="rounded=1;whiteSpace=wrap;html=1;fillColor=#dae8fc;strokeColor=#6c8ebf;arcSize=50;" vertex="1" parent="1">
                    <mxGeometry x="813.25" y="900" width="91" height="20" as="geometry"/>
                </mxCell>
                <mxCell id="451" value="variable_choices" style="rounded=1;whiteSpace=wrap;html=1;fillColor=#dae8fc;strokeColor=#6c8ebf;arcSize=50;" vertex="1" parent="1">
                    <mxGeometry x="772.75" y="755" width="95" height="20" as="geometry"/>
                </mxCell>
                <mxCell id="452" style="edgeStyle=none;html=1;entryX=0;entryY=0.5;entryDx=0;entryDy=0;exitX=1;exitY=0.5;exitDx=0;exitDy=0;" edge="1" parent="1" target="453" source="407">
                    <mxGeometry relative="1" as="geometry">
                        <mxPoint x="654.25" y="899.5" as="sourcePoint"/>
                    </mxGeometry>
                </mxCell>
                <mxCell id="453" value="Created by" style="text;html=1;strokeColor=none;fillColor=none;align=center;verticalAlign=middle;whiteSpace=wrap;rounded=0;rotation=-10;" vertex="1" parent="1">
                    <mxGeometry x="702.75" y="760" width="70" height="20" as="geometry"/>
                </mxCell>
                <mxCell id="454" style="edgeStyle=none;html=1;entryX=0;entryY=0.5;entryDx=0;entryDy=0;exitX=1;exitY=0.5;exitDx=0;exitDy=0;" edge="1" parent="1" target="455" source="407">
                    <mxGeometry relative="1" as="geometry">
                        <mxPoint x="654.25" y="899.5" as="sourcePoint"/>
                    </mxGeometry>
                </mxCell>
                <mxCell id="455" value="Created by" style="text;html=1;strokeColor=none;fillColor=none;align=center;verticalAlign=middle;whiteSpace=wrap;rounded=0;rotation=20;" vertex="1" parent="1">
                    <mxGeometry x="748" y="885" width="70" height="20" as="geometry"/>
                </mxCell>
                <mxCell id="456" style="edgeStyle=none;html=1;entryX=0;entryY=0.25;entryDx=0;entryDy=0;" edge="1" parent="1" source="457" target="451">
                    <mxGeometry relative="1" as="geometry">
                        <mxPoint x="802.5" y="754" as="targetPoint"/>
                    </mxGeometry>
                </mxCell>
                <mxCell id="457" value="data" style="rounded=0;whiteSpace=wrap;html=1;fillColor=#e1d5e7;strokeColor=#9673a6;" vertex="1" parent="1">
                    <mxGeometry x="696.25" y="715" width="73" height="20" as="geometry"/>
                </mxCell>
                <mxCell id="458" style="edgeStyle=none;html=1;entryX=0.5;entryY=0;entryDx=0;entryDy=0;" edge="1" parent="1" source="459">
                    <mxGeometry relative="1" as="geometry">
                        <mxPoint x="822.75" y="754" as="targetPoint"/>
                    </mxGeometry>
                </mxCell>
                <mxCell id="459" value="subset" style="rounded=0;whiteSpace=wrap;html=1;fillColor=#e1d5e7;strokeColor=#9673a6;" vertex="1" parent="1">
                    <mxGeometry x="782.25" y="695" width="73" height="20" as="geometry"/>
                </mxCell>
                <mxCell id="460" style="edgeStyle=none;html=1;" edge="1" parent="1" source="461">
                    <mxGeometry relative="1" as="geometry">
                        <mxPoint x="843.1666666666665" y="754" as="targetPoint"/>
                    </mxGeometry>
                </mxCell>
                <mxCell id="461" value="fill" style="rounded=0;whiteSpace=wrap;html=1;fillColor=#e1d5e7;strokeColor=#9673a6;" vertex="1" parent="1">
                    <mxGeometry x="865.25" y="706" width="73" height="20" as="geometry"/>
                </mxCell>
                <mxCell id="462" style="edgeStyle=none;html=1;" edge="1" parent="1" source="463">
                    <mxGeometry relative="1" as="geometry">
                        <mxPoint x="863.25" y="756.2857142857142" as="targetPoint"/>
                    </mxGeometry>
                </mxCell>
                <mxCell id="463" value="key" style="rounded=0;whiteSpace=wrap;html=1;fillColor=#e1d5e7;strokeColor=#9673a6;" vertex="1" parent="1">
                    <mxGeometry x="891.25" y="734" width="73" height="20" as="geometry"/>
                </mxCell>
                <mxCell id="464" style="edgeStyle=none;html=1;entryX=0.189;entryY=0.067;entryDx=0;entryDy=0;entryPerimeter=0;exitX=0.5;exitY=1;exitDx=0;exitDy=0;" edge="1" parent="1" source="465" target="450">
                    <mxGeometry relative="1" as="geometry">
                        <mxPoint x="841" y="894" as="targetPoint"/>
                    </mxGeometry>
                </mxCell>
                <mxCell id="465" value="data" style="rounded=0;whiteSpace=wrap;html=1;fillColor=#e1d5e7;strokeColor=#9673a6;" vertex="1" parent="1">
                    <mxGeometry x="763.25" y="840" width="73" height="20" as="geometry"/>
                </mxCell>
                <mxCell id="466" style="edgeStyle=none;html=1;entryX=0.347;entryY=0.048;entryDx=0;entryDy=0;entryPerimeter=0;exitX=0.527;exitY=1.022;exitDx=0;exitDy=0;exitPerimeter=0;" edge="1" parent="1" source="467" target="450">
                    <mxGeometry relative="1" as="geometry">
                        <mxPoint x="861.25" y="894" as="targetPoint"/>
                    </mxGeometry>
                </mxCell>
                <mxCell id="467" value="var_choices" style="rounded=0;whiteSpace=wrap;html=1;fillColor=#e1d5e7;strokeColor=#9673a6;" vertex="1" parent="1">
                    <mxGeometry x="843.25" y="840" width="73" height="20" as="geometry"/>
                </mxCell>
                <mxCell id="468" style="edgeStyle=none;html=1;exitX=0;exitY=0.5;exitDx=0;exitDy=0;entryX=0.75;entryY=0;entryDx=0;entryDy=0;" edge="1" parent="1" source="469" target="450">
                    <mxGeometry relative="1" as="geometry">
                        <mxPoint x="881.6666666666667" y="894" as="targetPoint"/>
                    </mxGeometry>
                </mxCell>
                <mxCell id="469" value="var_label" style="rounded=0;whiteSpace=wrap;html=1;fillColor=#e1d5e7;strokeColor=#9673a6;" vertex="1" parent="1">
                    <mxGeometry x="916.25" y="865" width="73" height="20" as="geometry"/>
                </mxCell>
                <mxCell id="470" style="edgeStyle=none;html=1;entryX=1;entryY=0.5;entryDx=0;entryDy=0;exitX=0;exitY=0.5;exitDx=0;exitDy=0;" edge="1" parent="1" source="471" target="450">
                    <mxGeometry relative="1" as="geometry">
                        <mxPoint x="901.75" y="896.2857142857143" as="targetPoint"/>
                    </mxGeometry>
                </mxCell>
                <mxCell id="471" value="subset" style="rounded=0;whiteSpace=wrap;html=1;fillColor=#e1d5e7;strokeColor=#9673a6;" vertex="1" parent="1">
                    <mxGeometry x="929.75" y="905" width="73" height="20" as="geometry"/>
                </mxCell>
                <mxCell id="472" style="edgeStyle=none;html=1;entryX=0.882;entryY=1.067;entryDx=0;entryDy=0;entryPerimeter=0;" edge="1" parent="1" source="473" target="450">
                    <mxGeometry relative="1" as="geometry">
                        <mxPoint x="901.75" y="904" as="targetPoint"/>
                    </mxGeometry>
                </mxCell>
                <mxCell id="473" value="sep" style="rounded=0;whiteSpace=wrap;html=1;fillColor=#e1d5e7;strokeColor=#9673a6;" vertex="1" parent="1">
                    <mxGeometry x="904.25" y="945" width="73" height="20" as="geometry"/>
                </mxCell>
                <mxCell id="474" value="" style="rounded=0;whiteSpace=wrap;html=1;fillColor=none;dashed=1;" vertex="1" parent="1">
                    <mxGeometry x="220" y="425" width="200" height="85" as="geometry"/>
                </mxCell>
                <mxCell id="475" value="OR" style="text;html=1;strokeColor=none;fillColor=none;align=center;verticalAlign=middle;whiteSpace=wrap;rounded=0;dashed=1;" vertex="1" parent="1">
                    <mxGeometry x="601" y="800" width="30" height="9" as="geometry"/>
                </mxCell>
                <mxCell id="476" value="OR" style="text;html=1;strokeColor=none;fillColor=none;align=center;verticalAlign=middle;whiteSpace=wrap;rounded=0;dashed=1;" vertex="1" parent="1">
                    <mxGeometry x="583" y="564.5" width="30" height="9" as="geometry"/>
                </mxCell>
            </root>
        </mxGraphModel>
    </diagram>
</mxfile>